# xmcd
#
# Track frame offsets: 
#        150
#        25810
#        44889
#        67796
#        90512
#        120805
#        144275
#        172257
#        201443
#        218346
#
# Disc length: 3251 seconds
#
# Revision: 0
# Processed by: cddbd v1.5.2PL0 Copyright (c) Steve Scherf et al.
# Submitted via: ExactAudioCopy v1.0b3
#
DISCID=840cb10a
DTITLE=Various Artist - Tinh ca Minh Ky 3
DYEAR=2006
DGENRE=
TTITLE0=Nhu Quynh - Canh thiep dau Xuan
TTITLE1=Truong Vu - Canh buom chuyen ben
TTITLE2=Ha Phuong - Chuyen tau hoang hon
TTITLE3=Truong Vu, Ha Vy - Tinh doi
TTITLE4=Giao Linh - Mot chuyen xe hoa
TTITLE5=Son Tuyen - Ha Tien
TTITLE6=Manh Quynh - Ngay ay quen nhau
TTITLE7=Ha Vy - Mua tren pho Hue
TTITLE8=Duy Quang, Julie - Ai noi voi em
TTITLE9=Phi Nhung - Gac nho dem Xuan
EXTD=
EXTT0=
EXTT1=
EXTT2=
EXTT3=
EXTT4=
EXTT5=
EXTT6=
EXTT7=
EXTT8=
EXTT9=
PLAYORDER=
